<svg xmlns="http://www.w3.org/2000/svg" xmlns:xlink="http://www.w3.org/1999/xlink" width="500" height="500" viewBox="0 0 500 500">
  <defs>
    <clipPath id="clip-path">
      <path id="Path_145" data-name="Path 145" d="M.667,77.1c0,52.271,81.67,94.646,182.411,94.646S365.488,129.368,365.488,77.1s-81.67-94.646-182.411-94.646S.667,24.827.667,77.1" transform="translate(-0.667 17.549)"/>
    </clipPath>
    <radialGradient id="radial-gradient" cx="0.628" cy="0.8" r="1.248" gradientTransform="translate(-0.009 0.511) scale(0.526 1)" gradientUnits="objectBoundingBox">
      <stop offset="0" stop-color="#aeb2d5"/>
      <stop offset="0.3" stop-color="#aeb2d5"/>
      <stop offset="0.75" stop-color="#484c89"/>
      <stop offset="1" stop-color="#484c89"/>
    </radialGradient>
    <clipPath id="clip-path-2">
      <path id="Path_147" data-name="Path 147" d="M0-18.494H380.022V192.35H0Z" transform="translate(0 18.494)"/>
    </clipPath>
    <clipPath id="clip-php">
      <rect width="500" height="500"/>
    </clipPath>
  </defs>
  <g id="php" clip-path="url(#clip-php)">
    <g id="php-icon" transform="translate(59.656 163.319)">
      <g id="Group_91" data-name="Group 91" transform="translate(7.6 -7.717)" clip-path="url(#clip-path)">
        <path id="Path_144" data-name="Path 144" d="M.667,77.1c0,52.271,81.67,94.646,182.411,94.646S365.488,129.368,365.488,77.1s-81.67-94.646-182.411-94.646S.667,24.827.667,77.1" transform="translate(-0.667 17.549)" fill="url(#radial-gradient)"/>
      </g>
      <g id="Group_92" data-name="Group 92" transform="translate(0 -18.494)" clip-path="url(#clip-path-2)">
        <path id="Path_146" data-name="Path 146" d="M176.577,158.3c96.807,0,175.285-39.227,175.285-87.618S273.384-16.932,176.577-16.932,1.292,22.3,1.292,70.685,79.77,158.3,176.577,158.3" transform="translate(13.434 34.737)" fill="#777bb3"/>
      </g>
      <g id="Group_93" data-name="Group 93" transform="translate(0 -18.494)" clip-path="url(#clip-path-2)">
        <path id="Path_148" data-name="Path 148" d="M49.122,41.574c7.96,0,13.9-1.448,17.662-4.3,3.72-2.824,6.289-7.719,7.635-14.546C75.675,16.345,75.2,11.889,73,9.485c-2.248-2.456-7.108-3.7-14.444-3.7H45.834L38.781,41.575h10.34ZM7.515,85.663a1.988,1.988,0,0,1-1.527-.711,1.933,1.933,0,0,1-.416-1.614l18.69-94.847a1.973,1.973,0,0,1,1.943-1.579H66.487c12.659,0,22.082,3.384,28,10.078,5.954,6.722,7.793,16.12,5.465,27.93A44.224,44.224,0,0,1,95.114,38.2,44.6,44.6,0,0,1,86.2,49.219,39.217,39.217,0,0,1,71.53,57.89c-5.28,1.7-12.06,2.557-20.154,2.557H35.065L30.407,84.084a1.972,1.972,0,0,1-1.942,1.58H7.515Z" transform="translate(57.583 74.711)"/>
        <path id="Path_149" data-name="Path 149" d="M49.271,9.516H60.36c8.854,0,11.93,1.916,12.976,3.059,1.734,1.9,2.061,5.895.947,11.562-1.252,6.345-3.573,10.844-6.9,13.37-3.406,2.586-8.942,3.9-16.454,3.9H42.987L49.27,9.516ZM68.292-13.26H28.011A3.945,3.945,0,0,0,24.125-10.1L5.436,84.748a3.866,3.866,0,0,0,.831,3.228A3.98,3.98,0,0,0,9.321,89.4H30.268a3.945,3.945,0,0,0,3.886-3.16L38.5,64.18h14.68c8.3,0,15.289-.893,20.769-2.653a41.2,41.2,0,0,0,15.408-9.1,46.4,46.4,0,0,0,9.289-11.49,46.323,46.323,0,0,0,5.059-13.862c2.451-12.432.46-22.387-5.918-29.587-6.315-7.131-16.239-10.747-29.5-10.747M38.186,45.308H50.928Q63.6,45.308,69.8,40.6t8.371-15.72q2.078-10.573-1.894-14.922T60.361,5.612H46.009l-7.822,39.7M68.294-9.356q18.177,0,26.514,9.41T99.82,26.329a42.105,42.105,0,0,1-4.628,12.7,42.439,42.439,0,0,1-8.525,10.532,37.122,37.122,0,0,1-13.943,8.252q-7.67,2.465-19.542,2.461H35.239L30.271,85.493H9.324L28.011-9.356H68.292" transform="translate(55.779 72.93)" fill="#fff"/>
        <path id="Path_150" data-name="Path 150" d="M66.634,83.451a1.987,1.987,0,0,1-1.527-.711,1.932,1.932,0,0,1-.416-1.614L72.959,39.16c.786-3.991.592-6.856-.546-8.066-.7-.74-2.789-1.981-8.977-1.981H48.458L38.063,81.871a1.972,1.972,0,0,1-1.943,1.58H15.338a1.99,1.99,0,0,1-1.527-.71,1.933,1.933,0,0,1-.416-1.614l18.69-94.847A1.972,1.972,0,0,1,34.027-15.3H54.81a1.99,1.99,0,0,1,1.527.71,1.933,1.933,0,0,1,.416,1.614L52.243,9.916H68.355c12.275,0,20.6,2.134,25.447,6.526,4.948,4.48,6.483,11.642,4.583,21.293l-8.7,44.137a1.972,1.972,0,0,1-1.943,1.58H66.635Z" transform="translate(138.936 51.706)"/>
        <path id="Path_151" data-name="Path 151" d="M56.615-15.471H35.833a3.945,3.945,0,0,0-3.886,3.16L13.257,82.536a3.866,3.866,0,0,0,.832,3.228,3.98,3.98,0,0,0,3.054,1.421H37.926a3.945,3.945,0,0,0,3.886-3.16L51.895,32.847H65.242c6.177,0,7.474,1.3,7.526,1.357.375.4.868,2.239.054,6.364L64.555,82.536a3.866,3.866,0,0,0,.832,3.228,3.98,3.98,0,0,0,3.054,1.421H89.553a3.945,3.945,0,0,0,3.886-3.16l8.7-44.137c2.041-10.36.295-18.133-5.186-23.1-5.231-4.737-13.992-7.041-26.786-7.041H56.451L60.5-10.822a3.865,3.865,0,0,0-.831-3.229,3.98,3.98,0,0,0-3.055-1.421m0,3.9L51.649,13.649H70.164q17.474,0,24.108,6.012t3.98,19.482l-8.7,44.137H68.443L76.71,41.314q1.411-7.161-1.038-9.767T65.244,28.942H48.632L37.927,83.28H17.145l18.69-94.847H56.617" transform="translate(137.13 49.924)" fill="#fff"/>
        <path id="Path_152" data-name="Path 152" d="M63.463,41.574c7.96,0,13.9-1.448,17.662-4.3,3.72-2.824,6.289-7.718,7.636-14.546,1.256-6.381.777-10.837-1.422-13.242-2.248-2.456-7.108-3.7-14.444-3.7H60.174L53.122,41.575h10.34ZM21.857,85.663a1.988,1.988,0,0,1-1.527-.711,1.933,1.933,0,0,1-.416-1.614L38.6-11.509a1.973,1.973,0,0,1,1.944-1.579h40.28c12.661,0,22.082,3.384,28.006,10.078,5.954,6.722,7.792,16.119,5.465,27.93A44.243,44.243,0,0,1,109.454,38.2a44.6,44.6,0,0,1-8.913,11.017A39.217,39.217,0,0,1,85.87,57.89c-5.28,1.7-12.06,2.557-20.154,2.557H49.4L44.747,84.084a1.973,1.973,0,0,1-1.944,1.58H21.856Z" transform="translate(206.742 74.711)"/>
        <path id="Path_153" data-name="Path 153" d="M63.611,9.516H74.7c8.854,0,11.93,1.916,12.975,3.059,1.735,1.9,2.062,5.895.947,11.561-1.252,6.345-3.574,10.844-6.9,13.37-3.406,2.586-8.942,3.9-16.454,3.9H57.33L63.612,9.516ZM82.632-13.26H42.351A3.945,3.945,0,0,0,38.466-10.1L19.777,84.748a3.866,3.866,0,0,0,.831,3.228A3.98,3.98,0,0,0,23.662,89.4H44.61a3.945,3.945,0,0,0,3.886-3.16L52.841,64.18h14.68c8.3,0,15.289-.893,20.769-2.653a41.2,41.2,0,0,0,15.409-9.1,46.518,46.518,0,0,0,9.288-11.489,46.145,46.145,0,0,0,5.059-13.862c2.451-12.433.46-22.388-5.918-29.588-6.315-7.13-16.239-10.746-29.5-10.746M52.527,45.308H65.269q12.667,0,18.869-4.708t8.371-15.72q2.08-10.573-1.894-14.922T74.7,5.612H60.349l-7.821,39.7M82.634-9.356q18.177,0,26.514,9.41t5.012,26.274a42.1,42.1,0,0,1-4.628,12.7,42.438,42.438,0,0,1-8.525,10.532,37.122,37.122,0,0,1-13.943,8.252q-7.67,2.465-19.542,2.461H49.58L44.612,85.493H23.664L42.354-9.355H82.635" transform="translate(204.938 72.93)" fill="#fff"/>
      </g>
    </g>
  </g>
</svg>