<?xml version="1.0" encoding="utf-8"?>
<!-- Generator: Adobe Illustrator 19.2.1, SVG Export Plug-In . SVG Version: 6.00 Build 0)  -->
<svg version="1.1" id="layer" xmlns="http://www.w3.org/2000/svg" xmlns:xlink="http://www.w3.org/1999/xlink" x="0px" y="0px"
	 viewBox="0 0 652 652" style="enable-background:new 0 0 652 652;" xml:space="preserve">
<style type="text/css">
	.st0{fill:#00B67A;}
	.st1{fill:#005128;}
</style>
<path d="M178.2,300.7h60.7V312H215v63.7h-13.1V312h-23.8L178.2,300.7L178.2,300.7z M236.3,321.4h11.2v10.5h0.2
	c0.4-1.5,1.1-2.9,2.1-4.3c1-1.4,2.2-2.7,3.7-3.8c1.4-1.2,3-2.1,4.8-2.8c1.7-0.7,3.5-1.1,5.3-1.1c1.4,0,2.4,0.1,2.9,0.1
	c0.5,0.1,1.1,0.2,1.6,0.2v11.5c-0.8-0.2-1.7-0.3-2.6-0.4c-0.9-0.1-1.7-0.2-2.6-0.2c-2,0-3.9,0.4-5.7,1.2c-1.8,0.8-3.3,2-4.7,3.5
	c-1.3,1.6-2.4,3.5-3.2,5.8c-0.8,2.3-1.2,5-1.2,8v25.8h-12L236.3,321.4L236.3,321.4z M323.1,375.7h-11.8v-7.6h-0.2
	c-1.5,2.8-3.7,4.9-6.6,6.6s-5.9,2.5-8.9,2.5c-7.1,0-12.3-1.7-15.5-5.3c-3.2-3.5-4.8-8.9-4.8-16v-34.5h12v33.3
	c0,4.8,0.9,8.2,2.8,10.1c1.8,2,4.4,3,7.7,3c2.5,0,4.6-0.4,6.3-1.2s3.1-1.8,4.1-3.1c1.1-1.3,1.8-2.9,2.3-4.7c0.5-1.8,0.7-3.8,0.7-5.9
	v-31.5h12V375.7z M343.5,358.3c0.4,3.5,1.7,5.9,4,7.4c2.3,1.4,5.1,2.1,8.3,2.1c1.1,0,2.4-0.1,3.8-0.3s2.8-0.5,4-1
	c1.3-0.5,2.3-1.2,3.1-2.2c0.8-1,1.2-2.2,1.1-3.7c-0.1-1.5-0.6-2.8-1.7-3.8c-1.1-1-2.4-1.7-4-2.4c-1.6-0.6-3.5-1.1-5.6-1.5
	c-2.1-0.4-4.2-0.9-6.4-1.4c-2.2-0.5-4.4-1.1-6.5-1.8c-2.1-0.7-3.9-1.6-5.6-2.9c-1.6-1.2-3-2.7-3.9-4.6c-1-1.9-1.5-4.1-1.5-6.9
	c0-3,0.7-5.4,2.2-7.4c1.4-2,3.3-3.6,5.5-4.8c2.2-1.2,4.7-2.1,7.4-2.6c2.7-0.5,5.3-0.7,7.7-0.7c2.8,0,5.5,0.3,8,0.9
	c2.5,0.6,4.9,1.5,6.9,2.9c2.1,1.3,3.8,3.1,5.1,5.2c1.4,2.1,2.2,4.7,2.6,7.7h-12.5c-0.6-2.9-1.9-4.8-3.9-5.8c-2.1-1-4.4-1.5-7.1-1.5
	c-0.8,0-1.9,0.1-3,0.2c-1.2,0.2-2.2,0.4-3.3,0.8c-1,0.4-1.9,1-2.6,1.7c-0.7,0.7-1.1,1.7-1.1,2.9c0,1.5,0.5,2.6,1.5,3.5
	s2.3,1.6,4,2.3c1.6,0.6,3.5,1.1,5.6,1.5c2.1,0.4,4.3,0.9,6.5,1.4c2.2,0.5,4.3,1.1,6.4,1.8c2.1,0.7,4,1.6,5.6,2.9
	c1.6,1.2,3,2.7,4,4.5c1,1.8,1.5,4.1,1.5,6.7c0,3.2-0.7,5.9-2.2,8.2c-1.5,2.2-3.4,4.1-5.7,5.5c-2.3,1.4-5,2.4-7.8,3.1
	c-2.9,0.6-5.7,1-8.5,1c-3.4,0-6.6-0.4-9.5-1.2c-2.9-0.8-5.5-2-7.6-3.5c-2.1-1.6-3.8-3.5-5-5.9c-1.2-2.3-1.9-5.1-2-8.4h12.1V358.3z
	 M383,321.4h9.1V305h12v16.3h10.8v8.9h-10.8v29c0,1.3,0.1,2.3,0.2,3.3c0.1,0.9,0.4,1.7,0.7,2.3c0.4,0.6,1,1.1,1.7,1.4
	c0.8,0.3,1.8,0.5,3.2,0.5c0.8,0,1.7,0,2.5-0.1c0.8-0.1,1.7-0.2,2.5-0.4v9.3c-1.3,0.2-2.6,0.3-3.9,0.4c-1.3,0.2-2.5,0.2-3.9,0.2
	c-3.2,0-5.7-0.3-7.6-0.9s-3.4-1.5-4.5-2.6c-1.1-1.2-1.8-2.6-2.2-4.3c-0.4-1.7-0.6-3.8-0.7-6v-32h-9.1v-9.1H383z M423.3,321.4h11.3
	v7.4h0.2c1.7-3.2,4-5.4,7-6.8c3-1.4,6.2-2.1,9.8-2.1c4.3,0,8,0.7,11.2,2.3c3.2,1.5,5.8,3.5,7.9,6.2c2.1,2.6,3.7,5.7,4.7,9.2
	s1.6,7.3,1.6,11.2c0,3.7-0.5,7.2-1.4,10.6c-1,3.4-2.4,6.5-4.3,9.1s-4.3,4.7-7.3,6.3c-3,1.6-6.4,2.4-10.4,2.4c-1.7,0-3.5-0.2-5.2-0.5
	c-1.7-0.3-3.4-0.8-5-1.5c-1.6-0.7-3.1-1.6-4.4-2.7c-1.4-1.1-2.5-2.4-3.4-3.8h-0.2v27.1h-12V321.4z M465.2,348.6c0-2.4-0.3-4.8-1-7.1
	c-0.6-2.3-1.6-4.3-2.9-6.1c-1.3-1.8-2.9-3.2-4.7-4.3c-1.9-1.1-4.1-1.6-6.5-1.6c-5,0-8.8,1.7-11.4,5.2c-2.5,3.5-3.8,8.2-3.8,14
	c0,2.8,0.3,5.3,1,7.6c0.7,2.3,1.6,4.3,3,6c1.3,1.7,2.9,3,4.8,4c1.9,1,4,1.5,6.5,1.5c2.8,0,5-0.6,6.9-1.7c1.9-1.1,3.4-2.6,4.7-4.3
	c1.2-1.8,2.1-3.8,2.6-6.1C464.9,353.3,465.2,351,465.2,348.6L465.2,348.6z M486.3,300.7h12V312h-12
	C486.3,312,486.3,300.7,486.3,300.7z M486.3,321.4h12v54.3h-12V321.4L486.3,321.4z M509,300.7h12v75h-12L509,300.7L509,300.7z
	 M557.6,377.2c-4.3,0-8.2-0.7-11.6-2.2s-6.2-3.4-8.6-5.9c-2.3-2.5-4.1-5.6-5.3-9.1c-1.2-3.5-1.9-7.4-1.9-11.5
	c0-4.1,0.6-7.9,1.9-11.4c1.2-3.5,3-6.5,5.3-9.1c2.3-2.5,5.2-4.5,8.6-5.9c3.4-1.4,7.3-2.2,11.6-2.2s8.2,0.7,11.6,2.2
	c3.4,1.4,6.2,3.4,8.6,5.9c2.3,2.5,4.1,5.6,5.3,9.1c1.2,3.5,1.9,7.3,1.9,11.4c0,4.2-0.6,8-1.9,11.5s-3,6.5-5.3,9.1
	c-2.3,2.5-5.2,4.5-8.6,5.9C565.8,376.4,562,377.2,557.6,377.2L557.6,377.2z M557.6,367.7c2.6,0,5-0.6,6.9-1.7c2-1.1,3.5-2.6,4.8-4.4
	c1.3-1.8,2.2-3.9,2.8-6.1c0.6-2.3,0.9-4.6,0.9-7c0-2.3-0.3-4.6-0.9-6.9c-0.6-2.3-1.5-4.3-2.8-6.1s-2.9-3.2-4.8-4.3
	c-2-1.1-4.3-1.7-6.9-1.7s-5,0.6-6.9,1.7c-2,1.1-3.5,2.6-4.8,4.3c-1.3,1.8-2.2,3.8-2.8,6.1c-0.6,2.3-0.9,4.6-0.9,6.9
	c0,2.4,0.3,4.7,0.9,7s1.5,4.3,2.8,6.1c1.3,1.8,2.9,3.3,4.8,4.4C552.7,367.2,555,367.7,557.6,367.7L557.6,367.7z M588.6,321.4h9.1
	V305h12v16.3h10.8v8.9h-10.8v29c0,1.3,0.1,2.3,0.2,3.3c0.1,0.9,0.4,1.7,0.7,2.3c0.4,0.6,1,1.1,1.7,1.4c0.8,0.3,1.8,0.5,3.2,0.5
	c0.8,0,1.7,0,2.5-0.1c0.8-0.1,1.7-0.2,2.5-0.4v9.3c-1.3,0.2-2.6,0.3-3.9,0.4c-1.3,0.2-2.5,0.2-3.9,0.2c-3.2,0-5.7-0.3-7.6-0.9
	c-1.9-0.6-3.4-1.5-4.5-2.6c-1.1-1.2-1.8-2.6-2.2-4.3c-0.4-1.7-0.6-3.8-0.7-6v-32h-9.1v-9.1H588.6z"/>
<path class="st0" d="M164.2,300.7h-54.9l-16.9-52.2l-17,52.2l-54.9-0.1l44.4,32.3l-17,52.2l44.4-32.3l44.4,32.3l-16.9-52.2
	L164.2,300.7z"/>
<path class="st1" d="M123.6,344.7l-3.8-11.8l-27.4,19.9L123.6,344.7z"/>
</svg>
